HIERARCHY
ROOT Hips
{
	OFFSET 0.000000 8.830580 0.000000
	CHANNELS 6 Xposition Yposition Zposition Zrotation Yrotation Xrotation 
	JOINT Spine
	{
		OFFSET 0.000000 0.010000 0.000000
		CHANNELS 3 Zrotation Yrotation Xrotation
		JOINT Spine1
		{
			OFFSET 0.000000 2.459130 0.000000
			CHANNELS 3 Zrotation Yrotation Xrotation
			JOINT Neck
			{
				OFFSET 0.000000 2.484630 0.000000
				CHANNELS 3 Zrotation Yrotation Xrotation
				JOINT Head_virtual
				{
					OFFSET 0.000000 0.000000 0.000000
					CHANNELS 3 Zrotation Yrotation Xrotation
					JOINT Head
					{
						OFFSET 0.000000 0.927525 0.000000
						CHANNELS 3 Zrotation Yrotation Xrotation
						End Site
						{
							OFFSET 0.000000 0.000000 0.000000
						}
					}
				}
				JOINT LeftUpArm_virtual
				{
					OFFSET 0.000000 0.000000 0.000000
					CHANNELS 3 Zrotation Yrotation Xrotation
					JOINT LeftUpArm
					{
						OFFSET 1.248820 0.000000 0.000000
						CHANNELS 3 Zrotation Yrotation Xrotation
						JOINT LeftForeArm
						{
							OFFSET 2.597580 0.000000 0.000000
							CHANNELS 3 Zrotation Yrotation Xrotation
							JOINT LeftHand
							{
								OFFSET 2.455420 0.000000 0.000000
								CHANNELS 3 Zrotation Yrotation Xrotation
								End Site
								{
									OFFSET 0.000000 0.000000 0.000000
								}
							}
						}
					}
				}
				JOINT RightUpArm_virtual
				{
					OFFSET -0.000000 -0.000000 -0.000000
					CHANNELS 3 Zrotation Yrotation Xrotation
					JOINT RightUpArm
					{
						OFFSET -1.248820 -0.000000 -0.000000
						CHANNELS 3 Zrotation Yrotation Xrotation
						JOINT RightForeArm
						{
							OFFSET -2.597580 -0.000000 -0.000000
							CHANNELS 3 Zrotation Yrotation Xrotation
							JOINT RightHand
							{
								OFFSET -2.455420 -0.000000 -0.000000
								CHANNELS 3 Zrotation Yrotation Xrotation
								End Site
								{
									OFFSET 0.000000 0.000000 0.000000
								}
							}
						}
					}
				}
			}
		}
	}
	JOINT LeftUpLeg
	{
		OFFSET 1.271939 0.000000 0.000000
		CHANNELS 3 Zrotation Yrotation Xrotation
		JOINT LeftLowLeg
		{
			OFFSET 0.000000 -4.342910 0.000000
			CHANNELS 3 Zrotation Yrotation Xrotation
			JOINT LeftFoot
			{
				OFFSET 0.000000 -4.487670 0.000000
				CHANNELS 3 Zrotation Yrotation Xrotation
				JOINT LeftToeBase
				{
					OFFSET 0.000000 0.000000 1.515070
					CHANNELS 3 Zrotation Yrotation Xrotation
					End Site
					{
						OFFSET 0.000000 0.000000 0.000000
					}
				}
			}
		}
	}
	JOINT RightUpLeg
	{
		OFFSET -1.271939 0.000000 0.000000
		CHANNELS 3 Zrotation Yrotation Xrotation
		JOINT RightLowLeg
		{
			OFFSET 0.000000 -4.342910 0.000000
			CHANNELS 3 Zrotation Yrotation Xrotation
			JOINT RightFoot
			{
				OFFSET 0.000000 -4.487670 0.000000
				CHANNELS 3 Zrotation Yrotation Xrotation
				JOINT RightToeBase
				{
					OFFSET 0.000000 0.000000 1.515070
					CHANNELS 3 Zrotation Yrotation Xrotation
					End Site
					{
						OFFSET 0.000000 0.000000 0.000000
					}
				}
			}
		}
	}
}
MOTION
Frames: 8
Frame Time: 0.041667
-16.018365 8.875343 43.682168 177.938238 0.635642 176.494693 2.024847 1.288814 -14.377616 -6.454484 3.202279 19.115404 0.000000 0.000000 0.000000 13.392063 4.106638 12.713899 -9.406237 -7.819274 -84.601129 -26.431000 3.867880 5.091003 -46.052601 -9.373450 5.358460 0.000000 -13.901500 0.000000 3.955680 14.593200 1.430790 31.385799 -6.107980 0.256989 47.758999 4.081820 5.782990 0.000000 18.740999 0.000000 3.249800 -6.350370 -12.899200 -3.335605 -17.089597 -0.403797 0.000000 0.000000 18.582800 -19.011190 6.744188 -6.548811 0.000000 0.000000 -19.235200 4.439318 15.882799 0.018556 0.000000 0.000000 21.656000 30.800490 -8.286306 -15.731520 0.000000 0.000000 -15.967462 
-16.017654 8.875379 43.681757 177.909198 0.565109 176.506356 1.957311 1.338514 -14.462332 -6.461142 3.286089 19.101722 0.000000 0.000000 0.000000 13.697896 3.925101 13.409797 -9.366843 -7.795759 -84.393341 -26.395800 3.890160 5.126007 -45.912601 -9.748650 5.637690 0.000000 -13.822900 0.000000 3.545930 14.584500 1.545840 31.275299 -6.201330 0.218994 48.095200 4.100420 4.364014 0.000000 18.995899 0.000000 4.390600 -9.233830 -11.426300 -3.353244 -17.097602 -0.398723 0.000000 0.000000 18.528400 -18.978789 6.723400 -6.498783 0.000000 0.000000 -19.246920 4.423764 15.890899 -0.014229 0.000000 0.000000 21.727600 30.812716 -8.334401 -15.790041 0.000000 0.000000 -15.977922 
-16.017825 8.875553 43.680894 177.888661 0.468541 176.472088 1.885212 1.376049 -14.499473 -6.457435 3.368475 19.117008 0.000000 0.000000 0.000000 14.027283 3.685055 13.988405 -9.487441 -7.745097 -84.201113 -26.339199 3.895650 4.915985 -45.750702 -9.909260 6.294110 0.000000 -13.957000 0.000000 3.309830 14.631900 2.218040 31.165400 -6.333790 -0.015991 48.338299 3.972730 4.273987 0.000000 18.666599 0.000000 4.831790 -9.656340 -11.301000 -3.385421 -17.150679 -0.361725 0.000000 0.000000 18.510900 -18.961147 6.707820 -6.460913 0.000000 0.000000 -19.262690 4.415991 15.846900 0.008610 0.000000 0.000000 21.786301 30.780009 -8.382977 -15.822005 0.000000 0.000000 -15.992357 
-16.018190 8.875434 43.680783 177.879624 0.379607 176.401575 1.804214 1.402787 -14.483235 -6.381567 3.470693 19.149989 0.000000 0.000000 0.000000 14.280582 3.479429 14.474134 -9.531249 -7.749390 -84.107545 -26.292999 3.823090 4.692993 -45.523701 -9.972000 7.071320 0.000000 -14.279700 0.000000 3.165670 14.563800 3.111750 31.059401 -6.458800 -0.204010 48.540401 3.888330 3.977997 0.000000 18.364201 0.000000 5.258140 -10.081300 -11.244400 -3.420549 -17.230743 -0.314665 0.000000 0.000000 18.547501 -18.927884 6.719442 -6.447675 0.000000 0.000000 -19.276610 4.426878 15.797693 0.055860 0.000000 0.000000 21.858601 30.807745 -8.392699 -15.856404 0.000000 0.000000 -16.012940 
-16.018090 8.875490 43.678885 177.874503 0.343619 176.321132 1.742396 1.422550 -14.489063 -6.311630 3.569497 19.275468 0.000000 0.000000 0.000000 14.367976 3.384217 14.665437 -9.540090 -7.763153 -84.023030 -26.244301 3.848930 4.687012 -45.154800 -10.171300 8.137130 0.000000 -14.898200 0.000000 3.105820 14.455000 3.333980 30.997200 -6.522850 -0.272003 48.670399 3.811930 3.846985 0.000000 18.223000 0.000000 5.361600 -10.177500 -10.936200 -3.450964 -17.232874 -0.227458 0.000000 0.000000 18.557199 -18.956960 6.683766 -6.447503 0.000000 0.000000 -19.237840 4.455451 15.798066 0.122391 0.000000 0.000000 21.924999 30.794125 -8.443946 -15.882945 0.000000 0.000000 -16.047020 
-16.019406 8.875284 43.678928 177.878511 0.211753 176.247766 1.694299 1.406645 -14.441146 -6.244943 3.621106 19.375523 0.000000 0.000000 0.000000 14.337856 3.400228 14.771530 -9.427615 -7.825468 -84.031185 -26.201401 3.763830 4.729004 -44.716702 -10.282900 9.128340 0.000000 -15.661100 0.000000 3.387350 14.318800 4.224970 30.975800 -6.563300 -0.312012 48.712898 3.754330 3.690002 0.000000 18.163099 0.000000 5.387370 -10.234800 -10.741100 -3.472853 -17.281928 -0.185094 0.000000 0.000000 18.590599 -18.900559 6.645075 -6.414572 0.000000 0.000000 -19.285040 4.470779 15.677218 0.190544 0.000000 0.000000 21.964399 30.790601 -8.461613 -15.904436 0.000000 0.000000 -16.066140 
-16.020982 8.875019 43.681564 177.870225 -0.050500 176.212188 1.606639 1.310366 -14.354834 -6.162730 3.619095 19.412161 0.000000 0.000000 0.000000 14.399335 3.267961 14.724937 -9.473949 -7.855922 -84.059765 -26.215500 3.668680 4.804993 -44.133301 -10.362900 10.332300 0.000000 -16.546499 0.000000 3.802520 14.101400 4.423800 31.024700 -6.559320 -0.303986 48.633900 3.688710 3.614014 0.000000 18.183599 0.000000 5.292140 -10.234600 -10.828200 -3.487576 -17.371902 -0.207969 0.000000 0.000000 18.601299 -18.874686 6.533641 -6.339642 0.000000 0.000000 -19.292660 4.446230 15.404887 0.224100 0.000000 0.000000 21.982500 30.769363 -8.457424 -15.931780 0.000000 0.000000 -16.041890 
-16.022814 8.873685 43.686990 177.901804 -0.420301 176.309110 1.550366 1.149130 -14.301237 -6.124425 3.509984 19.342824 0.000000 0.000000 0.000000 14.366535 3.260972 14.640271 -9.505586 -7.870586 -84.066067 -26.216400 3.637340 4.881989 -43.484001 -10.443800 11.725300 0.000000 -17.479000 0.000000 4.332290 13.886200 3.599520 31.098499 -6.541190 -0.250000 48.530998 3.662800 3.520996 0.000000 18.232401 0.000000 5.159170 -10.210500 -10.908300 -3.438463 -17.785369 -0.502675 0.000000 0.000000 18.851200 -18.873395 6.526701 -6.376798 0.000000 0.000000 -19.287260 4.427793 15.112665 0.127622 0.000000 0.000000 21.961599 30.852330 -8.473405 -15.994391 0.000000 0.000000 -16.035980 
